<svg width="50" height="50" viewBox="0 0 50 50" fill="none" xmlns="http://www.w3.org/2000/svg">
<path d="M46.1832 21.8751H43.7507C43.6121 21.3735 43.314 20.9306 42.9014 20.6135C42.4889 20.2963 41.9842 20.1221 41.4639 20.1172H38.8672V13.7672C38.8701 13.6485 38.8414 13.531 38.784 13.427C38.7266 13.323 38.6425 13.2361 38.5404 13.1753L20.2224 2.59498C20.1191 2.53497 20.0018 2.50336 19.8824 2.50336C19.763 2.50336 19.6457 2.53497 19.5425 2.59498L1.21875 13.1753C1.11507 13.2353 1.02907 13.3217 0.969403 13.4256C0.90974 13.5296 0.878526 13.6474 0.87891 13.7672V34.9279C0.878913 35.0479 0.910501 35.1658 0.970498 35.2697C1.0305 35.3736 1.11679 35.4599 1.22071 35.5199L19.5463 46.1002C19.6502 46.1602 19.7681 46.1917 19.8881 46.1918C20.0112 46.1918 20.1322 46.1603 20.2397 46.1002L29.8828 40.5379V44.5588C29.8818 44.9417 29.9568 45.3209 30.1033 45.6745C30.2499 46.0282 30.4651 46.3493 30.7366 46.6192C31.0081 46.8891 31.3304 47.1025 31.6849 47.247C32.0394 47.3915 32.4191 47.4642 32.8019 47.461H46.1832C46.567 47.4646 46.9477 47.3922 47.3034 47.2481C47.6592 47.1039 47.9829 46.8908 48.2559 46.6211C48.529 46.3514 48.746 46.0303 48.8945 45.6764C49.0429 45.3225 49.12 44.9427 49.1211 44.5588V24.8225C49.1206 24.0426 48.8113 23.2946 48.2607 22.7422C47.7101 22.1899 46.9631 21.8781 46.1832 21.8751ZM41.4882 21.4844C41.7514 21.4844 42.0038 21.589 42.1898 21.7751C42.3759 21.9612 42.4805 22.2135 42.4805 22.4767V22.5429C42.4805 22.8061 42.3759 23.0585 42.1898 23.2446C42.0038 23.4307 41.7514 23.5352 41.4882 23.5352H37.5157C37.2526 23.5352 37.0002 23.4307 36.8141 23.2446C36.628 23.0585 36.5234 22.8061 36.5234 22.5429V22.4767C36.5234 22.2135 36.628 21.9612 36.8141 21.7751C37.0002 21.589 37.2526 21.4844 37.5157 21.4844H41.4882ZM19.8881 3.97632L27.5027 8.37261L10.5455 18.1628L2.93096 13.7666L19.8881 3.97632ZM19.2383 44.3241L2.2461 34.5332V14.9498L19.2383 24.7407V44.3241ZM19.8881 23.5567L11.9127 18.9521L28.8699 9.16197L36.8457 13.7666L19.8881 23.5567ZM29.8828 24.8225V38.9593L20.6055 44.3241V24.7407L37.5 14.9498V20.1172H37.5212C37.0008 20.1221 36.4962 20.2963 36.0836 20.6135C35.671 20.9306 35.3729 21.3735 35.2344 21.8751H32.8019C32.0239 21.8788 31.2793 22.1915 30.7319 22.7442C30.1845 23.297 29.8791 24.0446 29.8828 24.8225ZM47.7539 44.5588C47.753 44.7632 47.7114 44.9653 47.6317 45.1534C47.552 45.3416 47.4357 45.512 47.2896 45.6548C47.1434 45.7976 46.9704 45.91 46.7804 45.9853C46.5905 46.0607 46.3875 46.0976 46.1832 46.0938H32.8019C32.5985 46.0972 32.3966 46.06 32.2079 45.9843C32.0192 45.9086 31.8475 45.7959 31.7029 45.6529C31.5583 45.5099 31.4438 45.3395 31.366 45.1516C31.2882 44.9637 31.2488 44.7622 31.25 44.5588V24.8225C31.2479 24.6168 31.2865 24.4127 31.3634 24.2219C31.4403 24.0311 31.5541 23.8573 31.6982 23.7106C31.8424 23.5638 32.014 23.4469 32.2034 23.3665C32.3928 23.2861 32.5961 23.2439 32.8019 23.2422H35.261C35.4076 23.7261 35.7071 24.1494 36.1146 24.4487C36.5221 24.7481 37.0156 24.9072 37.5212 24.9024H41.4639C41.9694 24.9072 42.463 24.7481 42.8704 24.4488C43.2779 24.1494 43.5774 23.7261 43.7239 23.2422H46.1832C46.6006 23.2449 47.0001 23.4125 47.2943 23.7086C47.5886 24.0046 47.7538 24.4051 47.7539 24.8225V44.5588Z" fill="#103742"/>
<path d="M33.5888 31.7383H34.3043C34.4856 31.7383 34.6595 31.6663 34.7877 31.5381C34.9159 31.4099 34.9879 31.236 34.9879 31.0547C34.9879 30.8734 34.9159 30.6995 34.7877 30.5713C34.6595 30.4431 34.4856 30.3711 34.3043 30.3711H34.2774V28.5156H36.1628C36.2057 28.6531 36.2925 28.7727 36.4099 28.856C36.5273 28.9394 36.6688 28.982 36.8127 28.9772C36.9942 28.9777 37.1685 28.9062 37.2974 28.7783C37.4262 28.6505 37.4991 28.4767 37.5 28.2952V27.8353C37.4985 27.6528 37.425 27.4784 37.2957 27.3498C37.1663 27.2212 36.9914 27.1489 36.809 27.1484H33.5888C33.4991 27.1489 33.4104 27.167 33.3277 27.2018C33.2451 27.2366 33.1701 27.2873 33.1071 27.3511C33.044 27.4149 32.9942 27.4905 32.9604 27.5736C32.9266 27.6567 32.9096 27.7456 32.9102 27.8353V31.0555C32.9096 31.1449 32.9268 31.2336 32.9606 31.3164C32.9945 31.3993 33.0444 31.4746 33.1075 31.538C33.1705 31.6015 33.2455 31.6518 33.3281 31.6862C33.4107 31.7206 33.4993 31.7383 33.5888 31.7383Z" fill="#103742"/>
<path d="M33.5938 37.9883H36.8164C36.9977 37.9883 37.1716 37.9163 37.2998 37.7881C37.428 37.6599 37.5 37.486 37.5 37.3047V34.082C37.5 33.9007 37.428 33.7269 37.2998 33.5987C37.1716 33.4705 36.9977 33.3984 36.8164 33.3984H33.5938C33.4124 33.3984 33.2386 33.4705 33.1104 33.5987C32.9822 33.7269 32.9102 33.9007 32.9102 34.082V37.3047C32.9102 37.486 32.9822 37.6599 33.1104 37.7881C33.2386 37.9163 33.4124 37.9883 33.5938 37.9883ZM34.2773 34.7656H36.1328V36.6211H34.2773V34.7656Z" fill="#103742"/>
<path d="M34.3044 42.8711H34.2774V41.0156H36.1259C36.1295 41.1954 36.2033 41.3666 36.3316 41.4926C36.4599 41.6185 36.6325 41.6892 36.8123 41.6893C36.9921 41.6895 37.1648 41.6192 37.2934 41.4935C37.422 41.3678 37.4962 41.1968 37.5001 41.017V40.3583C37.4994 40.1735 37.4269 39.9962 37.298 39.8637C37.1691 39.7313 36.9938 39.6541 36.809 39.6484H33.5888C33.4054 39.6546 33.2316 39.7323 33.1048 39.865C32.978 39.9977 32.9081 40.1748 32.9102 40.3583V43.5785C32.9101 43.6668 32.9277 43.7542 32.9621 43.8355C32.9964 43.9168 33.0467 43.9904 33.1099 44.052C33.1732 44.1135 33.2482 44.1617 33.3305 44.1937C33.4127 44.2257 33.5006 44.2409 33.5888 44.2383H34.3044C34.4857 44.2383 34.6596 44.1663 34.7878 44.0381C34.916 43.9099 34.988 43.736 34.988 43.5547C34.988 43.3734 34.916 43.1995 34.7878 43.0713C34.6596 42.9431 34.4857 42.8711 34.3044 42.8711Z" fill="#103742"/>
<path d="M38.3829 27.9874L36.381 29.9894L35.772 29.3803C35.7085 29.3168 35.6332 29.2665 35.5502 29.2321C35.4673 29.1977 35.3784 29.1801 35.2886 29.1801C35.1988 29.1801 35.1099 29.1977 35.027 29.2321C34.9441 29.2665 34.8687 29.3168 34.8052 29.3803C34.7417 29.4438 34.6914 29.5191 34.657 29.6021C34.6227 29.685 34.605 29.7739 34.605 29.8637C34.605 29.9535 34.6227 30.0424 34.657 30.1253C34.6914 30.2082 34.7417 30.2836 34.8052 30.3471L35.8977 31.4395C35.9612 31.503 36.0365 31.5533 36.1195 31.5877C36.2024 31.622 36.2913 31.6397 36.3811 31.6397C36.4709 31.6397 36.5598 31.622 36.6427 31.5877C36.7256 31.5533 36.801 31.503 36.8645 31.4395L39.35 28.9539C39.4782 28.8257 39.5503 28.6518 39.5503 28.4705C39.5503 28.2892 39.4782 28.1153 39.35 27.9871C39.2218 27.8589 39.0479 27.7869 38.8666 27.7869C38.6853 27.7869 38.5114 27.8589 38.3832 27.9871L38.3829 27.9874Z" fill="#962689"/>
<path d="M38.3829 40.6092L36.381 42.6111L35.772 42.0021C35.7085 41.9386 35.6332 41.8882 35.5502 41.8539C35.4673 41.8195 35.3784 41.8018 35.2886 41.8018C35.1988 41.8018 35.1099 41.8195 35.027 41.8539C34.9441 41.8882 34.8687 41.9386 34.8052 42.0021C34.7417 42.0655 34.6914 42.1409 34.657 42.2238C34.6227 42.3068 34.605 42.3957 34.605 42.4855C34.605 42.5752 34.6227 42.6641 34.657 42.7471C34.6914 42.83 34.7417 42.9054 34.8052 42.9689L35.8977 44.0612C35.9612 44.1247 36.0365 44.1751 36.1195 44.2094C36.2024 44.2438 36.2913 44.2615 36.3811 44.2615C36.4709 44.2615 36.5598 44.2438 36.6427 44.2094C36.7256 44.1751 36.801 44.1247 36.8645 44.0612L39.35 41.5757C39.4782 41.4475 39.5503 41.2736 39.5503 41.0923C39.5503 40.911 39.4782 40.7371 39.35 40.6089C39.2218 40.4807 39.0479 40.4087 38.8666 40.4087C38.6853 40.4087 38.5114 40.4807 38.3832 40.6089L38.3829 40.6092Z" fill="#962689"/>
<path d="M45.3961 28.8086H41.1025C40.9212 28.8086 40.7474 28.8806 40.6192 29.0088C40.491 29.137 40.4189 29.3109 40.4189 29.4922C40.4189 29.6735 40.491 29.8474 40.6192 29.9756C40.7474 30.1038 40.9212 30.1758 41.1025 30.1758H45.3961C45.5774 30.1758 45.7513 30.1038 45.8795 29.9756C46.0077 29.8474 46.0797 29.6735 46.0797 29.4922C46.0797 29.3109 46.0077 29.137 45.8795 29.0088C45.7513 28.8806 45.5774 28.8086 45.3961 28.8086Z" fill="#103742"/>
<path d="M45.3961 35.0586H41.1025C40.9212 35.0586 40.7474 35.1306 40.6192 35.2588C40.491 35.387 40.4189 35.5609 40.4189 35.7422C40.4189 35.9235 40.491 36.0974 40.6192 36.2256C40.7474 36.3538 40.9212 36.4258 41.1025 36.4258H45.3961C45.5774 36.4258 45.7513 36.3538 45.8795 36.2256C46.0077 36.0974 46.0797 35.9235 46.0797 35.7422C46.0797 35.5609 46.0077 35.387 45.8795 35.2588C45.7513 35.1306 45.5774 35.0586 45.3961 35.0586Z" fill="#103742"/>
<path d="M45.3961 41.3086H41.1025C40.9212 41.3086 40.7474 41.3806 40.6192 41.5088C40.491 41.637 40.4189 41.8109 40.4189 41.9922C40.4189 42.1735 40.491 42.3474 40.6192 42.4756C40.7474 42.6038 40.9212 42.6758 41.1025 42.6758H45.3961C45.5774 42.6758 45.7513 42.6038 45.8795 42.4756C46.0077 42.3474 46.0797 42.1735 46.0797 41.9922C46.0797 41.8109 46.0077 41.637 45.8795 41.5088C45.7513 41.3806 45.5774 41.3086 45.3961 41.3086Z" fill="#103742"/>
</svg>
