<svg width="22" height="22" viewBox="0 0 22 22" fill="none" xmlns="http://www.w3.org/2000/svg">
<path d="M15.95 0.916626C13.9792 0.91967 12.1329 1.88092 11 3.4935C9.86706 1.88092 8.02083 0.91967 6.05 0.916626C2.82699 0.916626 0 3.91531 0 7.33329C0 10.6644 1.88096 14.0953 5.43984 17.2553C7.08877 18.7166 8.89758 19.9869 10.8317 21.0423C10.9373 21.0967 11.0627 21.0967 11.1683 21.0423C13.1017 19.9869 14.91 18.7164 16.5584 17.2553C20.119 14.0953 22 10.6644 22 7.33329C22 3.91531 19.173 0.916626 15.95 0.916626V0.916626ZM11 20.2996C9.65329 19.5565 0.733333 14.3644 0.733333 7.33329C0.733333 4.30579 3.21746 1.64996 6.05 1.64996C7.96891 1.65336 9.73779 2.68855 10.6806 4.36003C10.7511 4.46781 10.8713 4.53263 11 4.53263C11.1287 4.53263 11.2489 4.46781 11.3194 4.36003C12.2622 2.68855 14.0311 1.65336 15.95 1.64996C18.7825 1.64996 21.2667 4.30579 21.2667 7.33329C21.2667 14.3644 12.3467 19.5565 11 20.2996Z" fill="#103742"/>
</svg>
