<svg width="43" height="43" viewBox="0 0 43 43" fill="none" xmlns="http://www.w3.org/2000/svg">
<g clip-path="url(#clip0)">
<path d="M42.5546 15.099L40.4579 14.4316C40.6766 13.1945 40.8226 11.9939 40.8925 10.8552C40.9137 10.508 40.6495 10.2093 40.3023 10.1879C39.9557 10.1666 39.6564 10.4309 39.6351 10.7781C39.5694 11.8497 39.4324 12.981 39.2283 14.1484C38.1697 14.0069 37.0868 14.1191 36.0741 14.4794C35.8163 14.3118 35.5521 14.1561 35.2816 14.0129C36.1993 12.7193 36.6987 11.1704 36.6987 9.57089V6.9318C36.6987 6.58393 36.4168 6.30191 36.0688 6.30191H33.4296C31.8302 6.30191 30.2811 6.80137 28.9876 7.719C28.8424 7.4447 28.6848 7.17662 28.5148 6.91567C28.8733 5.90667 28.9855 4.82812 28.8458 3.77318C32.8068 3.07853 36.1967 3.17704 38.9332 4.06738C39.327 5.27997 39.5679 6.6376 39.6497 8.10811C39.6689 8.45471 39.9654 8.72129 40.3135 8.70205C40.6609 8.68274 40.9268 8.38551 40.9074 8.03815C40.8125 6.33139 40.5154 4.75791 40.0242 3.36156C39.9608 3.18141 39.8191 3.03973 39.6389 2.9764C36.6328 1.91911 32.9085 1.77364 28.564 2.54337L27.894 0.438519C27.7885 0.107027 27.4342 -0.0759785 27.1027 0.0293397C25.7353 0.594396 23.438 0.706517 21.6492 3.01092C21.031 2.41874 20.3228 1.90919 19.5377 1.50321C19.2289 1.34355 18.8486 1.46449 18.6889 1.77347C17.8696 3.61318 16.6339 4.91076 16.7217 7.3881C16.0298 8.19931 13.6085 11.1864 11.6453 15.4315C11.4993 15.7473 11.6368 16.1216 11.9526 16.2677C12.2685 16.4138 12.6428 16.2761 12.7887 15.9604C14.4667 12.332 16.5384 9.60347 17.4195 8.52157L24.2284 15.3306C26.9783 18.0804 29.8992 25.5686 28.9018 29.2802C27.7727 29.8792 22.4955 32.5419 17.6342 32.7113L10.2954 25.3725C10.4145 23.1937 10.8869 20.9249 11.7009 18.6241C11.817 18.2961 11.6452 17.9362 11.3173 17.8201C10.9893 17.7039 10.6294 17.8759 10.5134 18.2039C9.74986 20.3616 9.2735 22.4974 9.091 24.5682C8.25013 24.309 7.2963 24.511 6.63181 25.1753C5.8677 25.9395 5.71527 27.0866 6.17308 28.0043L0.314054 31.5198C0.119879 31.6363 0.00313878 31.8481 0.0083459 32.0745C0.0117053 32.2209 0.132561 35.7011 3.71599 39.2847C5.51547 41.0841 8.21603 42.9996 10.7577 42.9996C11.0517 42.9996 11.3075 42.9755 11.4808 42.6867L14.9963 36.8277C15.9258 37.2914 17.0691 37.125 17.8253 36.3688C18.4853 35.7088 18.6892 34.7629 18.4375 33.9259C23.9509 33.4811 29.4914 30.3986 29.7388 30.2595C29.7389 30.2594 29.7391 30.2593 29.7392 30.2593C32.8367 28.5624 34.9654 26.8307 35.6205 26.2721C38.0739 26.3528 39.3398 25.1481 41.2196 24.3042C41.5287 24.1444 41.6496 23.7644 41.4899 23.4553C41.084 22.6703 40.5744 21.9622 39.9819 21.344C41.0539 20.512 41.8548 19.3736 42.2704 18.0682L42.9637 15.8903C43.0692 15.5588 42.8861 15.2046 42.5546 15.099ZM23.1496 12.47C23.1503 12.4529 23.1517 12.4358 23.1524 12.4187C23.2875 9.41568 25.0804 8.3174 26.6986 6.59678C29.3417 9.61985 29.6964 14.1465 27.3996 17.5801C25.7515 14.6416 24.5187 13.9828 23.1496 12.47ZM34.6271 18.0788C33.475 19.2309 31.8099 19.9281 30.0403 19.8482C29.4294 19.4971 28.7747 19.1731 28.0772 18.894C28.0679 18.8745 28.0583 18.8553 28.0489 18.8358C29.0872 17.4877 29.803 15.8598 30.0688 14.0876C32.3322 13.9923 34.6042 14.7358 36.4039 16.302L34.6271 18.0788ZM29.5176 8.89127C30.6371 8.03101 32.0101 7.56169 33.4297 7.56169H35.439V9.57105C35.439 10.9909 34.9695 12.3642 34.109 13.4837C32.8758 13.0174 31.5518 12.7875 30.1802 12.8227C30.2155 11.4746 29.9884 10.1402 29.5176 8.89127ZM26.8847 1.4209C27.1525 2.50247 27.9062 3.75403 27.5524 5.66051C27.2493 5.32204 27.1179 5.19212 27.0107 5.13492C26.7672 5.00491 26.4657 5.04825 26.2686 5.2452L24.1563 7.35752C23.8502 6.10966 23.2864 4.95628 22.5093 3.96265C23.958 1.92994 25.9707 1.81219 26.8847 1.4209ZM19.5071 2.93391C21.5626 4.21419 22.8344 6.33474 23.1052 8.62017C22.5902 9.40199 22.1989 10.3428 22.0129 11.3332L17.9788 7.29907C17.9261 5.34926 18.8838 4.33454 19.5071 2.93391ZM16.9345 35.4781C16.469 35.9437 15.7153 35.9437 15.2497 35.4781L12.5232 32.7517C12.2773 32.5057 11.8785 32.5057 11.6324 32.7517C11.3864 32.9976 11.3864 33.3965 11.6324 33.6424L14.0111 36.0211L10.5808 41.7382C10.1643 41.7171 9.31457 41.5955 8.16564 41.0368L9.7455 38.4591C9.92724 38.1625 9.83427 37.7747 9.53755 37.5929C9.24116 37.4112 8.85323 37.5042 8.6714 37.8009L7.06887 40.4156C5.4917 39.3984 3.74622 37.7376 2.63912 35.899L5.20002 34.3295C5.49665 34.1477 5.58971 33.7599 5.40796 33.4633C5.22613 33.1668 4.83846 33.0737 4.54182 33.2554L2.04803 34.7838C1.55537 33.7105 1.37253 32.8478 1.30559 32.3942L6.97959 28.9898L9.71694 31.7271C9.96302 31.9731 10.3618 31.9731 10.6078 31.7271C10.8538 31.4811 10.8538 31.0823 10.6078 30.8364L7.52264 27.7511C7.0582 27.2865 7.0582 26.5307 7.52273 26.0661C7.98801 25.6008 8.74153 25.6004 9.20723 26.066C9.20732 26.066 9.2074 26.0661 9.2074 26.0662L16.9344 33.7932C17.4001 34.2587 17.4002 35.0125 16.9345 35.4781ZM30.3153 28.4779C30.5238 26.2501 29.891 23.3253 28.8301 20.6245C28.8309 20.6249 28.8319 20.6254 28.8327 20.6259C31.8108 22.1726 33.8125 24.5378 34.5578 25.5171C33.8635 26.0877 32.3645 27.2533 30.3153 28.4779ZM35.7567 25.0157C35.2846 24.3568 33.9129 22.5867 31.7527 20.9757C32.695 20.7897 33.5923 20.4214 34.3927 19.8901C36.6669 20.1657 38.7817 21.4354 40.0591 23.4859C38.6494 24.117 37.6694 25.0423 35.7567 25.0157ZM41.07 17.686C40.7093 18.8191 39.9924 19.7984 39.0303 20.484C38.0398 19.7097 36.8906 19.147 35.6477 18.8402C37.879 16.6072 37.7604 16.7315 37.799 16.6843C38.0012 16.4363 37.9857 16.0714 37.7557 15.8414C37.6178 15.7034 37.4765 15.5699 37.3322 15.4408C38.2141 15.2771 39.1302 15.3311 39.9948 15.6062L41.5724 16.1084L41.07 17.686Z" fill="#103742"/>
<circle cx="20" cy="23" r="4" fill="#962689"/>
</g>
<defs>
<clipPath id="clip0">
<rect width="43" height="43" fill="white"/>
</clipPath>
</defs>
</svg>
