<svg aria-hidden="true" style="position: absolute; width: 0; height: 0; overflow: hidden;" version="1.1" xmlns="http://www.w3.org/2000/svg" xmlns:xlink="http://www.w3.org/1999/xlink">
<defs>
<symbol id="icon-arrow-down" viewBox="0 0 53 32">
<path d="M52.623 2.164c-0.947-0.947-2.482-0.947-3.428 0l-22.528 22.528-22.529-22.528c-0.947-0.947-2.482-0.947-3.428 0s-0.947 2.482 0 3.428l24.243 24.242c0.455 0.455 1.071 0.71 1.714 0.71s1.26-0.256 1.714-0.71l24.242-24.242c0.947-0.947 0.947-2.482 0-3.428z"></path>
</symbol>
<symbol id="icon-favorite" viewBox="0 0 32 32">
<path d="M23.2 1.333c-2.867 0.004-5.552 1.403-7.2 3.748-1.648-2.346-4.333-3.744-7.2-3.748-4.688 0-8.8 4.362-8.8 9.333 0 4.845 2.736 9.836 7.912 14.432 2.398 2.126 5.029 3.973 7.843 5.508 0.154 0.079 0.336 0.079 0.49 0 2.812-1.535 5.442-3.383 7.84-5.508 5.179-4.596 7.915-9.587 7.915-14.432 0-4.972-4.112-9.333-8.8-9.333v0zM16 29.527c-1.959-1.081-14.933-8.633-14.933-18.86 0-4.404 3.613-8.267 7.733-8.267 2.791 0.005 5.364 1.511 6.735 3.942 0.103 0.157 0.277 0.251 0.465 0.251s0.362-0.094 0.465-0.251c1.371-2.431 3.944-3.937 6.735-3.942 4.12 0 7.733 3.863 7.733 8.267 0 10.227-12.975 17.779-14.933 18.86z"></path>
</symbol>
<symbol id="icon-search" viewBox="0 0 32 32">
<path d="M31.805 30.862l-9.737-9.737c2.022-2.246 3.265-5.206 3.265-8.459 0-6.984-5.682-12.667-12.667-12.667s-12.667 5.682-12.667 12.667c0 6.984 5.682 12.667 12.667 12.667 3.253 0 6.213-1.243 8.459-3.265l9.737 9.737c0.13 0.13 0.301 0.195 0.471 0.195s0.341-0.065 0.471-0.195c0.26-0.26 0.26-0.682-0-0.943zM12.667 24c-6.249 0-11.333-5.084-11.333-11.333s5.085-11.333 11.333-11.333c6.249 0 11.333 5.084 11.333 11.333s-5.085 11.333-11.333 11.333z"></path>
</symbol>
<symbol id="icon-shopping-basket" viewBox="0 0 35 32">
<path d="M34.467 13.066h-6.214l-7.848-11.415c-0.229-0.334-0.685-0.418-1.020-0.189-0.334 0.23-0.418 0.686-0.189 1.020l7.277 10.585h-17.745l7.277-10.585c0.229-0.334 0.145-0.79-0.189-1.020-0.332-0.228-0.789-0.145-1.020 0.189l-7.848 11.415h-6.214c-0.405 0-0.733 0.328-0.733 0.733s0.328 0.733 0.733 0.733h0.93l4.483 14.089c0.39 1.223 1.513 2.044 2.795 2.044h17.316c1.283 0 2.406-0.821 2.795-2.045l4.483-14.089h0.93c0.405 0 0.733-0.328 0.733-0.733s-0.328-0.733-0.733-0.733zM27.655 28.177c-0.195 0.612-0.756 1.023-1.397 1.023h-17.316c-0.641 0-1.202-0.411-1.397-1.022l-4.342-13.645h28.794l-4.342 13.644z"></path>
</symbol>
<symbol id="icon-telegram" viewBox="0 0 32 32">
<path fill="#61a8de" style="fill: var(--color1, #61a8de)" d="M25.333 0h-18.667c-3.682 0-6.667 2.985-6.667 6.667v18.667c0 3.682 2.985 6.667 6.667 6.667h18.667c3.682 0 6.667-2.985 6.667-6.667v-18.667c0-3.682-2.985-6.667-6.667-6.667z"></path>
<path fill="#fff" style="fill: var(--color2, #fff)" d="M25.197 7.064l-21.399 8.339c-0.693 0.27-0.651 1.265 0.062 1.475l5.438 1.606 2.029 6.439c0.212 0.673 1.064 0.877 1.558 0.373l2.811-2.871 5.516 4.049c0.675 0.495 1.637 0.127 1.808-0.692l3.653-17.467c0.179-0.856-0.663-1.568-1.477-1.251zM22.514 10.94l-9.94 8.79c-0.099 0.088-0.162 0.209-0.177 0.34l-0.383 3.402c-0.012 0.111-0.168 0.126-0.201 0.019l-1.574-5.073c-0.072-0.232 0.022-0.484 0.229-0.612l11.738-7.28c0.27-0.168 0.546 0.204 0.308 0.414z"></path>
</symbol>
<symbol id="icon-user" viewBox="0 0 32 32">
<path d="M16 16.041c-8.433 0-15.294 6.861-15.294 15.294 0 0.367 0.298 0.665 0.665 0.665s0.665-0.298 0.665-0.665c0-7.7 6.264-13.964 13.964-13.964s13.964 6.264 13.964 13.964c0 0.367 0.298 0.665 0.665 0.665s0.665-0.298 0.665-0.665c0-8.434-6.861-15.294-15.294-15.294z"></path>
<path d="M16 0c-4.032 0-7.314 3.281-7.314 7.314s3.282 7.314 7.314 7.314c4.032 0 7.314-3.281 7.314-7.314s-3.282-7.314-7.314-7.314zM16 13.299c-3.3 0-5.985-2.685-5.985-5.985s2.685-5.985 5.985-5.985c3.3 0 5.984 2.685 5.984 5.985s-2.685 5.985-5.984 5.985z"></path>
</symbol>
<symbol id="icon-vector-1" viewBox="0 0 3 32">
<path stroke-linejoin="round" stroke-linecap="round" stroke-miterlimit="4" stroke-width="1.4545" d="M1.455 1.455v29.091"></path>
</symbol>
<symbol id="icon-whatsapp" viewBox="0 0 32 32">
<path fill="#1bd741" style="fill: var(--color9, #1bd741)" d="M25.333 0h-18.667c-3.682 0-6.667 2.985-6.667 6.667v18.667c0 3.682 2.985 6.667 6.667 6.667h18.667c3.682 0 6.667-2.985 6.667-6.667v-18.667c0-3.682-2.985-6.667-6.667-6.667z"></path>
<path fill="#fff" style="fill: var(--color2, #fff)" d="M4.809 27.203l1.567-5.567c-1.008-1.712-1.539-3.661-1.539-5.662 0-6.163 5.014-11.176 11.176-11.176s11.176 5.014 11.176 11.176c0 6.163-5.014 11.176-11.176 11.176-1.92 0-3.8-0.491-5.464-1.425l-5.741 1.478zM10.844 23.692l0.342 0.209c1.45 0.885 3.12 1.353 4.828 1.353 5.117 0 9.28-4.163 9.28-9.28s-4.163-9.28-9.28-9.28c-5.117 0-9.28 4.163-9.28 9.28 0 1.783 0.507 3.514 1.465 5.007l0.23 0.359-0.903 3.206 3.317-0.854z"></path>
<path fill="#fff" style="fill: var(--color2, #fff)" d="M12.875 10.772l-0.725-0.040c-0.228-0.012-0.451 0.064-0.623 0.213-0.352 0.305-0.914 0.896-1.086 1.665-0.257 1.147 0.14 2.551 1.17 3.956s2.949 3.651 6.343 4.611c1.094 0.309 1.954 0.101 2.618-0.324 0.526-0.336 0.888-0.876 1.019-1.486l0.116-0.541c0.037-0.172-0.051-0.346-0.21-0.42l-2.451-1.13c-0.159-0.073-0.348-0.027-0.455 0.112l-0.962 1.247c-0.073 0.094-0.197 0.132-0.309 0.092-0.659-0.232-2.866-1.156-4.077-3.489-0.053-0.101-0.039-0.224 0.035-0.31l0.92-1.064c0.094-0.109 0.118-0.261 0.061-0.393l-1.056-2.472c-0.056-0.132-0.182-0.22-0.325-0.228z"></path>
</symbol>
<symbol id="icon-shipped" viewBox="0 0 32 32">
<path fill="#103742" style="fill: var(--color1, #103742)" d="M29.76 14.46l-0.829-3.315c0.227-0.048 0.397-0.249 0.397-0.49v-0.534c0-1.16-0.944-2.104-2.104-2.104h-3.774v-1.102c0-0.571-0.464-1.036-1.035-1.036h-19.24c-0.571 0-1.035 0.465-1.035 1.036v9.086c0 0.277 0.224 0.501 0.501 0.501s0.501-0.224 0.501-0.501v-9.086c0-0.018 0.015-0.033 0.033-0.033h19.24c0.018 0 0.033 0.015 0.033 0.033v9.086c0 0.277 0.224 0.501 0.501 0.501s0.501-0.224 0.501-0.501v-0.568h5.911c0.001 0 0.001 0 0.001 0s0.001-0 0.001-0c0.727 0 1.345 0.478 1.557 1.136h-1.558c-0.277 0-0.501 0.224-0.501 0.501v1.069c0 0.866 0.704 1.57 1.57 1.57h0.568v2.205h-1.31c-0.43-1.243-1.612-2.138-2.999-2.138s-2.569 0.895-2.999 2.138h-0.241v-3.775c0-0.277-0.224-0.501-0.501-0.501s-0.501 0.224-0.501 0.501v3.774h-10.396c-0.43-1.243-1.612-2.138-2.999-2.138s-2.569 0.895-2.999 2.138h-2.88c-0.018 0-0.033-0.015-0.033-0.033v-1.102h2.171c0.277 0 0.501-0.224 0.501-0.501s-0.224-0.501-0.501-0.501h-4.81c-0.277 0-0.501 0.224-0.501 0.501s0.224 0.501 0.501 0.501h1.637v1.102c0 0.571 0.465 1.036 1.035 1.036h2.706c-0 0.011-0.001 0.022-0.001 0.033 0 1.75 1.424 3.173 3.173 3.173s3.173-1.424 3.173-3.173c0-0.011-0.001-0.022-0.001-0.033h11.292c-0 0.011-0.001 0.022-0.001 0.033 0 1.75 1.424 3.173 3.173 3.173s3.173-1.424 3.173-3.173c0-0.011-0.001-0.022-0.001-0.033h1.638c0.277 0 0.501-0.224 0.501-0.501v-5.344c0-1.319-0.974-2.416-2.24-2.609zM23.449 9.019h3.774c0.608 0 1.102 0.495 1.102 1.102v0.033h-4.877v-1.136zM23.449 14.43v-3.274h4.452l0.818 3.274h-5.271zM9.052 25.119c-1.197 0-2.171-0.974-2.171-2.171s0.974-2.171 2.171-2.171c1.197 0 2.171 0.974 2.171 2.171s-0.974 2.171-2.171 2.171zM26.689 25.119c-1.197 0-2.171-0.974-2.171-2.171s0.974-2.171 2.171-2.171c1.197 0 2.171 0.974 2.171 2.171s-0.974 2.171-2.171 2.171zM30.998 18.706h-0.568c-0.313 0-0.568-0.255-0.568-0.568v-0.568h1.136v1.136h0z"></path>
<path fill="#962689" style="fill: var(--color2, #962689)" d="M9.052 21.912c-0.571 0-1.036 0.465-1.036 1.036s0.465 1.036 1.036 1.036c0.571 0 1.036-0.465 1.036-1.036s-0.465-1.036-1.036-1.036z"></path>
<path fill="#962689" style="fill: var(--color2, #962689)" d="M26.689 21.912c-0.571 0-1.036 0.465-1.036 1.036s0.464 1.036 1.036 1.036c0.571 0 1.035-0.465 1.035-1.036s-0.464-1.036-1.035-1.036z"></path>
<path fill="#962689" style="fill: var(--color2, #962689)" d="M20.81 19.775h-7.482c-0.277 0-0.501 0.224-0.501 0.501s0.224 0.501 0.501 0.501h7.482c0.277 0 0.501-0.224 0.501-0.501s-0.224-0.501-0.501-0.501z"></path>
<path fill="#962689" style="fill: var(--color2, #962689)" d="M7.983 17.637h-6.413c-0.277 0-0.501 0.224-0.501 0.501s0.224 0.501 0.501 0.501h6.413c0.277 0 0.501-0.224 0.501-0.501s-0.224-0.501-0.501-0.501z"></path>
</symbol>
<symbol id="icon-flower" viewBox="0 0 32 32">
<path fill="#103742" style="fill: var(--color1, #103742)" d="M31.669 11.236l-1.56-0.497c0.163-0.921 0.271-1.814 0.323-2.662 0.016-0.258-0.181-0.481-0.439-0.497s-0.481 0.181-0.497 0.439c-0.049 0.797-0.151 1.639-0.303 2.508-0.788-0.105-1.594-0.022-2.347 0.246-0.192-0.125-0.388-0.241-0.59-0.347 0.683-0.963 1.055-2.115 1.055-3.306v-1.964c0-0.259-0.21-0.469-0.469-0.469h-1.964c-1.19 0-2.343 0.372-3.306 1.055-0.108-0.204-0.225-0.404-0.352-0.598 0.267-0.751 0.35-1.554 0.246-2.339 2.948-0.517 5.47-0.444 7.507 0.219 0.293 0.902 0.472 1.913 0.533 3.007 0.014 0.258 0.235 0.456 0.494 0.442s0.456-0.236 0.442-0.494c-0.071-1.27-0.292-2.441-0.657-3.48-0.047-0.134-0.153-0.24-0.287-0.287-2.237-0.787-5.009-0.895-8.242-0.322l-0.499-1.566c-0.078-0.247-0.342-0.383-0.589-0.304-1.018 0.42-2.727 0.504-4.058 2.219-0.46-0.441-0.987-0.82-1.571-1.122-0.23-0.119-0.513-0.029-0.632 0.201-0.61 1.369-1.529 2.335-1.464 4.178-0.515 0.604-2.317 2.827-3.778 5.986-0.109 0.235-0.006 0.514 0.229 0.622s0.514 0.006 0.622-0.229c1.249-2.7 2.79-4.731 3.446-5.536l5.067 5.067c2.046 2.046 4.22 7.619 3.478 10.381-0.84 0.446-4.767 2.427-8.385 2.553l-5.461-5.461c0.089-1.621 0.44-3.31 1.046-5.022 0.086-0.244-0.041-0.512-0.285-0.598s-0.512 0.042-0.598 0.286c-0.568 1.606-0.923 3.195-1.059 4.736-0.626-0.193-1.336-0.043-1.83 0.452-0.569 0.569-0.682 1.422-0.341 2.105l-4.36 2.616c-0.144 0.087-0.231 0.244-0.228 0.413 0.003 0.109 0.092 2.699 2.759 5.366 1.339 1.339 3.349 2.765 5.24 2.765 0.219 0 0.409-0.018 0.538-0.233l2.616-4.36c0.692 0.345 1.543 0.221 2.105-0.341 0.491-0.491 0.643-1.195 0.456-1.818 4.103-0.331 8.226-2.625 8.41-2.728 0-0 0-0 0-0 2.305-1.263 3.889-2.552 4.377-2.967 1.826 0.060 2.768-0.836 4.167-1.464 0.23-0.119 0.32-0.402 0.201-0.632-0.302-0.584-0.681-1.111-1.122-1.571 0.798-0.619 1.394-1.466 1.703-2.438l0.516-1.621c0.078-0.247-0.058-0.51-0.304-0.589zM17.228 9.28c0.001-0.013 0.002-0.025 0.002-0.038 0.101-2.235 1.435-3.052 2.639-4.333 1.967 2.25 2.231 5.618 0.522 8.174-1.227-2.187-2.144-2.677-3.163-3.803zM25.769 13.454c-0.857 0.857-2.097 1.376-3.413 1.317-0.455-0.261-0.942-0.502-1.461-0.71-0.007-0.014-0.014-0.029-0.021-0.043 0.773-1.003 1.305-2.215 1.503-3.534 1.684-0.071 3.375 0.482 4.715 1.648l-1.322 1.322zM21.967 6.617c0.833-0.64 1.855-0.989 2.911-0.989h1.495v1.495c0 1.057-0.349 2.079-0.99 2.912-0.918-0.347-1.903-0.518-2.924-0.492 0.026-1.003-0.143-1.996-0.493-2.926zM20.007 1.057c0.199 0.805 0.76 1.736 0.497 3.155-0.226-0.252-0.323-0.349-0.403-0.391-0.181-0.097-0.406-0.065-0.552 0.082l-1.572 1.572c-0.228-0.929-0.647-1.787-1.226-2.526 1.078-1.513 2.576-1.6 3.256-1.892zM14.517 2.183c1.53 0.953 2.476 2.531 2.678 4.232-0.383 0.582-0.674 1.282-0.813 2.019l-3.002-3.002c-0.039-1.451 0.674-2.206 1.137-3.248zM12.602 26.402c-0.346 0.346-0.907 0.346-1.254 0l-2.029-2.029c-0.183-0.183-0.48-0.183-0.663 0s-0.183 0.48 0 0.663l1.77 1.77-2.553 4.255c-0.31-0.016-0.942-0.106-1.797-0.522l1.176-1.918c0.135-0.221 0.066-0.509-0.155-0.645s-0.509-0.066-0.645 0.155l-1.193 1.946c-1.174-0.757-2.473-1.993-3.297-3.361l1.906-1.168c0.221-0.135 0.29-0.424 0.155-0.645s-0.424-0.29-0.645-0.155l-1.856 1.137c-0.367-0.799-0.503-1.441-0.552-1.778l4.223-2.534 2.037 2.037c0.183 0.183 0.48 0.183 0.663 0s0.183-0.48 0-0.663l-2.296-2.296c-0.346-0.346-0.346-0.908 0-1.254s0.907-0.347 1.254-0c0 0 0 0 0 0l5.75 5.75c0.347 0.346 0.347 0.907 0 1.254zM22.56 21.193c0.155-1.658-0.316-3.834-1.105-5.844 0.001 0 0.001 0.001 0.002 0.001 2.216 1.151 3.706 2.911 4.261 3.64-0.517 0.425-1.632 1.292-3.157 2.203zM26.61 18.616c-0.351-0.49-1.372-1.808-2.98-3.006 0.701-0.138 1.369-0.412 1.965-0.808 1.692 0.205 3.266 1.15 4.217 2.676-1.049 0.47-1.778 1.158-3.202 1.138zM30.564 13.162c-0.268 0.843-0.802 1.572-1.518 2.082-0.737-0.576-1.592-0.995-2.517-1.223 1.66-1.662 1.572-1.569 1.601-1.604 0.15-0.185 0.139-0.456-0.032-0.627-0.103-0.103-0.208-0.202-0.315-0.298 0.656-0.122 1.338-0.082 1.981 0.123l1.174 0.374-0.374 1.174z"></path>
<path fill="#962689" style="fill: var(--color2, #962689)" d="M17.86 17.116c0 1.644-1.333 2.977-2.977 2.977s-2.977-1.333-2.977-2.977c0-1.644 1.333-2.977 2.977-2.977s2.977 1.333 2.977 2.977z"></path>
</symbol>
<symbol id="icon-box" viewBox="0 0 32 32">
<path fill="#103742" style="fill: var(--color1, #103742)" d="M29.557 14h-1.557c-0.089-0.321-0.279-0.604-0.544-0.807s-0.587-0.315-0.92-0.318h-1.662v-4.064c0.002-0.076-0.017-0.151-0.053-0.218s-0.091-0.122-0.156-0.161l-11.724-6.771c-0.066-0.038-0.141-0.059-0.218-0.059s-0.152 0.020-0.218 0.059l-11.727 6.771c-0.066 0.038-0.121 0.094-0.16 0.16s-0.058 0.142-0.058 0.219v13.543c0 0.077 0.020 0.152 0.059 0.219s0.094 0.122 0.16 0.16l11.728 6.771c0.066 0.038 0.142 0.059 0.219 0.059 0.079 0 0.156-0.020 0.225-0.059l6.172-3.56v2.573c-0.001 0.245 0.047 0.488 0.141 0.714s0.232 0.432 0.405 0.605 0.38 0.309 0.607 0.402c0.227 0.092 0.47 0.139 0.715 0.137h8.564c0.246 0.002 0.489-0.044 0.717-0.136s0.435-0.229 0.61-0.401c0.175-0.173 0.314-0.378 0.409-0.605s0.144-0.47 0.145-0.715v-12.631c-0-0.499-0.198-0.978-0.551-1.331s-0.83-0.553-1.33-0.555zM26.552 13.75c0.168 0 0.33 0.067 0.449 0.186s0.186 0.281 0.186 0.449v0.042c0 0.168-0.067 0.33-0.186 0.449s-0.281 0.186-0.449 0.186h-2.542c-0.168 0-0.33-0.067-0.449-0.186s-0.186-0.281-0.186-0.449v-0.042c0-0.168 0.067-0.33 0.186-0.449s0.281-0.186 0.449-0.186h2.542zM12.728 2.545l4.873 2.814-10.853 6.266-4.873-2.814 10.853-6.266zM12.313 28.367l-10.875-6.266v-12.533l10.875 6.266v12.533zM12.728 15.076l-5.104-2.947 10.853-6.266 5.104 2.947-10.853 6.266zM19.125 15.886v9.048l-5.937 3.433v-12.533l10.812-6.266v3.307h0.014c-0.333 0.003-0.656 0.115-0.92 0.318s-0.455 0.486-0.544 0.807h-1.557c-0.498 0.002-0.974 0.203-1.325 0.556s-0.546 0.832-0.543 1.33zM30.563 28.518c-0.001 0.131-0.027 0.26-0.078 0.381s-0.125 0.23-0.219 0.321c-0.094 0.091-0.204 0.163-0.326 0.212s-0.251 0.072-0.382 0.069h-8.564c-0.13 0.002-0.259-0.022-0.38-0.070s-0.231-0.121-0.323-0.212c-0.093-0.092-0.166-0.201-0.216-0.321s-0.075-0.249-0.074-0.379v-12.631c-0.001-0.132 0.023-0.262 0.073-0.384s0.122-0.233 0.214-0.327c0.092-0.094 0.202-0.169 0.323-0.22s0.251-0.078 0.383-0.080h1.574c0.094 0.31 0.285 0.581 0.546 0.772s0.577 0.293 0.9 0.29h2.523c0.324 0.003 0.639-0.099 0.9-0.29s0.452-0.463 0.546-0.772h1.574c0.267 0.002 0.523 0.109 0.711 0.299s0.294 0.446 0.294 0.713v12.631z"></path>
<path fill="#103742" style="fill: var(--color1, #103742)" d="M21.497 20.313h0.458c0.116 0 0.227-0.046 0.309-0.128s0.128-0.193 0.128-0.309c0-0.116-0.046-0.227-0.128-0.309s-0.193-0.128-0.309-0.128h-0.017v-1.188h1.207c0.027 0.088 0.083 0.165 0.158 0.218s0.166 0.081 0.258 0.078c0.116 0 0.228-0.045 0.31-0.127s0.129-0.193 0.13-0.309v-0.294c-0.001-0.117-0.048-0.228-0.131-0.311s-0.195-0.129-0.311-0.129h-2.061c-0.057 0-0.114 0.012-0.167 0.034s-0.101 0.055-0.141 0.096c-0.040 0.041-0.072 0.089-0.094 0.142s-0.032 0.11-0.032 0.168v2.061c-0 0.057 0.011 0.114 0.032 0.167s0.054 0.101 0.094 0.142c0.040 0.041 0.088 0.073 0.141 0.095s0.11 0.033 0.167 0.033z"></path>
<path fill="#103742" style="fill: var(--color1, #103742)" d="M21.5 24.313h2.062c0.116 0 0.227-0.046 0.309-0.128s0.128-0.193 0.128-0.309v-2.063c0-0.116-0.046-0.227-0.128-0.309s-0.193-0.128-0.309-0.128h-2.062c-0.116 0-0.227 0.046-0.309 0.128s-0.128 0.193-0.128 0.309v2.063c0 0.116 0.046 0.227 0.128 0.309s0.193 0.128 0.309 0.128zM21.937 22.25h1.188v1.188h-1.188v-1.188z"></path>
<path fill="#103742" style="fill: var(--color1, #103742)" d="M21.955 27.438h-0.017v-1.188h1.183c0.002 0.115 0.050 0.225 0.132 0.305s0.193 0.126 0.308 0.126c0.115 0 0.226-0.045 0.308-0.125s0.13-0.19 0.132-0.305v-0.422c-0-0.118-0.047-0.232-0.129-0.317s-0.195-0.134-0.313-0.138h-2.061c-0.117 0.004-0.229 0.054-0.31 0.139s-0.126 0.198-0.125 0.316v2.061c-0 0.056 0.011 0.112 0.033 0.164s0.054 0.099 0.095 0.139c0.041 0.039 0.088 0.070 0.141 0.091s0.109 0.030 0.165 0.029h0.458c0.116 0 0.227-0.046 0.309-0.128s0.128-0.193 0.128-0.309c0-0.116-0.046-0.227-0.128-0.309s-0.193-0.128-0.309-0.128z"></path>
<path fill="#962689" style="fill: var(--color2, #962689)" d="M24.565 17.912l-1.281 1.281-0.39-0.39c-0.041-0.041-0.089-0.073-0.142-0.095s-0.11-0.033-0.167-0.033-0.114 0.011-0.167 0.033c-0.053 0.022-0.101 0.054-0.142 0.095s-0.073 0.089-0.095 0.142c-0.022 0.053-0.033 0.11-0.033 0.167s0.011 0.114 0.033 0.167c0.022 0.053 0.054 0.101 0.095 0.142l0.699 0.699c0.041 0.041 0.089 0.073 0.142 0.095s0.11 0.033 0.167 0.033 0.114-0.011 0.167-0.033c0.053-0.022 0.101-0.054 0.142-0.095l1.591-1.591c0.082-0.082 0.128-0.193 0.128-0.309s-0.046-0.227-0.128-0.309c-0.082-0.082-0.193-0.128-0.309-0.128s-0.227 0.046-0.309 0.128l-0 0z"></path>
<path fill="#962689" style="fill: var(--color2, #962689)" d="M24.565 25.99l-1.281 1.281-0.39-0.39c-0.041-0.041-0.089-0.073-0.142-0.095s-0.11-0.033-0.167-0.033-0.114 0.011-0.167 0.033c-0.053 0.022-0.101 0.054-0.142 0.095s-0.073 0.089-0.095 0.142c-0.022 0.053-0.033 0.11-0.033 0.168s0.011 0.114 0.033 0.167c0.022 0.053 0.054 0.101 0.095 0.142l0.699 0.699c0.041 0.041 0.089 0.073 0.142 0.095s0.11 0.033 0.167 0.033 0.114-0.011 0.167-0.033c0.053-0.022 0.101-0.054 0.142-0.095l1.591-1.591c0.082-0.082 0.128-0.193 0.128-0.309s-0.046-0.227-0.128-0.309c-0.082-0.082-0.193-0.128-0.309-0.128s-0.227 0.046-0.309 0.128l-0 0z"></path>
<path fill="#103742" style="fill: var(--color1, #103742)" d="M29.053 18.438h-2.748c-0.116 0-0.227 0.046-0.309 0.128s-0.128 0.193-0.128 0.309c0 0.116 0.046 0.227 0.128 0.309s0.193 0.128 0.309 0.128h2.748c0.116 0 0.227-0.046 0.309-0.128s0.128-0.193 0.128-0.309c0-0.116-0.046-0.227-0.128-0.309s-0.193-0.128-0.309-0.128z"></path>
<path fill="#103742" style="fill: var(--color1, #103742)" d="M29.053 22.438h-2.748c-0.116 0-0.227 0.046-0.309 0.128s-0.128 0.193-0.128 0.309c0 0.116 0.046 0.227 0.128 0.309s0.193 0.128 0.309 0.128h2.748c0.116 0 0.227-0.046 0.309-0.128s0.128-0.193 0.128-0.309c0-0.116-0.046-0.227-0.128-0.309s-0.193-0.128-0.309-0.128z"></path>
<path fill="#103742" style="fill: var(--color1, #103742)" d="M29.053 26.438h-2.748c-0.116 0-0.227 0.046-0.309 0.128s-0.128 0.193-0.128 0.309c0 0.116 0.046 0.227 0.128 0.309s0.193 0.128 0.309 0.128h2.748c0.116 0 0.227-0.046 0.309-0.128s0.128-0.193 0.128-0.309c0-0.116-0.046-0.227-0.128-0.309s-0.193-0.128-0.309-0.128z"></path>
</symbol>
<symbol id="icon-apple-pay" viewBox="0 0 68 32">
<path fill="#962689" style="fill: var(--color1, #962689)" d="M20.328 8.248c-0.26 0.239-0.519 0.473-0.779 0.712-0.904 0.856-1.588 1.847-1.828 3.086-0.335 1.717 0.020 3.29 1.064 4.699 0.524 0.707 1.143 1.289 1.972 1.628 0.095 0.040 0.195 0.075 0.315 0.119-0.11 0.294-0.205 0.582-0.32 0.861-0.674 1.633-1.553 3.141-2.751 4.45-0.225 0.244-0.474 0.463-0.734 0.672-0.874 0.707-1.858 0.976-2.961 0.657-0.549-0.159-1.099-0.338-1.648-0.508-0.564-0.174-1.139-0.314-1.733-0.329-0.739-0.020-1.423 0.204-2.102 0.453-0.519 0.189-1.039 0.388-1.573 0.513-0.844 0.199-1.603-0.060-2.302-0.533-0.704-0.478-1.263-1.1-1.748-1.787-1.208-1.722-2.132-3.589-2.696-5.62-0.504-1.807-0.644-3.639-0.36-5.495 0.25-1.638 0.864-3.116 2.017-4.335 1.198-1.264 2.671-1.787 4.404-1.613 0.859 0.085 1.683 0.333 2.512 0.572 0.345 0.1 0.694 0.174 1.044 0.264 0.499 0.124 0.989 0.070 1.468-0.070 0.679-0.199 1.348-0.423 2.022-0.622 1.009-0.299 2.027-0.383 3.066-0.184 1.343 0.259 2.407 0.981 3.296 1.986 0.11 0.124 0.22 0.254 0.33 0.383 0.010 0.005 0.015 0.020 0.025 0.040z"></path>
<path fill="#962689" style="fill: var(--color1, #962689)" d="M15.275 0c0.015 0.294 0.055 0.572 0.035 0.846-0.105 1.488-0.689 2.772-1.723 3.853-0.464 0.488-0.979 0.916-1.618 1.165-0.539 0.214-1.119 0.259-1.693 0.299-0.010 0-0.020-0.010-0.025-0.015 0.085-3.325 1.768-5.48 5.023-6.147z"></path>
<path fill="#13130a" style="fill: var(--color2, #13130a)" d="M27.549 3.957c1.333-0.219 3.076-0.413 5.298-0.413 2.726 0 4.724 0.632 5.992 1.772 1.173 1.010 1.873 2.563 1.873 4.46 0 1.926-0.569 3.444-1.648 4.554-1.458 1.548-3.84 2.339-6.531 2.339-0.824 0-1.588-0.030-2.222-0.189v8.536h-2.761v-21.060zM30.31 14.23c0.604 0.159 1.363 0.219 2.282 0.219 3.331 0 5.358-1.613 5.358-4.554 0-2.812-1.997-4.171-5.043-4.171-1.203 0-2.127 0.095-2.602 0.219v8.287h0.005z"></path>
<path fill="#13130a" style="fill: var(--color2, #13130a)" d="M50.668 25.011l-0.22-1.926h-0.095c-0.854 1.199-2.507 2.275-4.694 2.275-3.106 0-4.694-2.18-4.694-4.395 0-3.698 3.301-5.724 9.228-5.689v-0.319c0-1.264-0.349-3.539-3.49-3.539-1.428 0-2.916 0.443-3.995 1.14l-0.634-1.832c1.268-0.821 3.106-1.359 5.043-1.359 4.694 0 5.837 3.196 5.837 6.262v5.724c0 1.329 0.065 2.623 0.255 3.668h-2.542v-0.010zM50.259 17.201c-3.046-0.065-6.501 0.473-6.501 3.444 0 1.802 1.203 2.658 2.632 2.658 1.997 0 3.266-1.264 3.71-2.563 0.095-0.284 0.16-0.602 0.16-0.886v-2.653z"></path>
<path fill="#13130a" style="fill: var(--color2, #13130a)" d="M56.66 9.711l3.361 9.044c0.35 1.010 0.729 2.215 0.984 3.131h0.065c0.285-0.916 0.604-2.085 0.984-3.195l3.046-8.979h2.951l-4.184 10.906c-1.997 5.246-3.361 7.934-5.263 9.582-1.363 1.199-2.726 1.677-3.425 1.802l-0.699-2.339c0.699-0.219 1.618-0.662 2.442-1.359 0.759-0.602 1.713-1.677 2.347-3.096 0.125-0.284 0.22-0.508 0.22-0.662 0-0.159-0.065-0.378-0.19-0.727l-5.677-14.101h3.041v-0.005z"></path>
</symbol>
<symbol id="icon-mobile-payment" viewBox="0 0 32 32">
<path fill="#962689" style="fill: var(--color1, #962689)" d="M18.128 27.876h-3.185c-0.166 0-0.325 0.066-0.442 0.183s-0.183 0.276-0.183 0.442c0 0.166 0.066 0.325 0.183 0.442s0.276 0.183 0.442 0.183h3.185c0.166 0 0.325-0.066 0.442-0.183s0.183-0.276 0.183-0.442c0-0.166-0.066-0.325-0.183-0.442s-0.276-0.183-0.442-0.183z"></path>
<path fill="#000" style="fill: var(--color3, #000)" d="M29 10.375c-1.26 0-2.349 0.353-3.15 1.020-0.074 0.062-0.149 0.13-0.225 0.204v-9.599c-0.001-0.431-0.173-0.843-0.477-1.148s-0.717-0.476-1.148-0.477h-15c-0.431 0.001-0.843 0.173-1.148 0.477s-0.476 0.717-0.477 1.148v1.663l-0.077-0.077c-0.492-0.492-1.16-0.769-1.856-0.769s-1.364 0.277-1.856 0.769c-0.492 0.492-0.769 1.16-0.769 1.856s0.277 1.364 0.769 1.856l2.705 2.705c-0.438 0.128-0.835 0.367-1.152 0.695s-0.543 0.732-0.657 1.174c-0.113 0.442-0.11 0.905 0.011 1.345s0.353 0.841 0.675 1.163l1.538 1.538c-0.489 0.059-0.95 0.255-1.333 0.564s-0.671 0.72-0.831 1.185c-0.16 0.465-0.187 0.966-0.076 1.446s0.354 0.918 0.702 1.266l1.038 1.039c-0.489 0.059-0.95 0.255-1.333 0.564s-0.671 0.72-0.831 1.185c-0.16 0.465-0.187 0.966-0.076 1.446s0.354 0.918 0.702 1.266l2.708 2.708v1.413c0 0.431 0.172 0.844 0.476 1.148s0.718 0.476 1.149 0.477h12c0.166 0 0.325-0.066 0.442-0.183s0.183-0.276 0.183-0.442v-6c0.001-0.524 0.124-1.040 0.358-1.509s0.574-0.876 0.992-1.192l2.4-1.8c0.077-0.059 0.14-0.134 0.183-0.221s0.066-0.182 0.067-0.279v-5c0-2.489 1.519-3.183 2.75-3.338v19.337c0 0.166 0.066 0.325 0.183 0.442s0.276 0.183 0.442 0.183c0.166 0 0.325-0.066 0.442-0.183s0.183-0.276 0.183-0.442v-20c0-0.166-0.066-0.325-0.183-0.442s-0.276-0.183-0.442-0.183zM9 1.625h15c0.099 0 0.195 0.040 0.265 0.11s0.11 0.166 0.11 0.265v1.872h-15.75v-1.872c0-0.099 0.040-0.195 0.11-0.265s0.166-0.11 0.265-0.11zM4.066 5.441c-0.013-1.211 1.501-1.837 2.348-0.972l0.961 0.961v3.89l-2.906-2.906c-0.128-0.127-0.23-0.279-0.299-0.446s-0.104-0.346-0.104-0.527zM6.051 11.551c0.512-0.533 1.433-0.533 1.945 0l2.828 2.829c1.242 1.334-0.616 3.187-1.945 1.945l-2.828-2.829c-0.257-0.258-0.402-0.608-0.402-0.972s0.145-0.714 0.402-0.972zM11.708 13.496l-0.679-0.679c0.129-1.243 0.687-2.401 1.578-3.277s2.059-1.414 3.303-1.523 2.488 0.22 3.517 0.928c1.029 0.709 1.779 1.753 2.121 2.955s0.256 2.485-0.245 3.629c-0.501 1.145-1.385 2.079-2.5 2.643s-2.391 0.722-3.61 0.447c-1.219-0.275-2.304-0.966-3.068-1.954 0.288-0.501 0.403-1.082 0.328-1.655s-0.337-1.105-0.745-1.514zM6.051 17.551c0.512-0.533 1.433-0.533 1.945 0l2.828 2.829c1.242 1.334-0.616 3.187-1.945 1.945l-2.828-2.829c-0.257-0.258-0.402-0.608-0.402-0.972s0.145-0.714 0.402-0.972zM5.551 23.051c0.512-0.533 1.433-0.533 1.945 0l2.828 2.828c1.242 1.334-0.616 3.187-1.945 1.945l-2.828-2.828c-0.257-0.258-0.402-0.608-0.402-0.972s0.145-0.714 0.402-0.972zM8.625 30v-0.625c0.236 0.068 0.481 0.102 0.727 0.102 0.364 0 0.723-0.075 1.056-0.222s0.632-0.36 0.877-0.628c0.246-0.268 0.433-0.584 0.55-0.928s0.161-0.709 0.13-1.071h8.41v3.747h-11.375c-0.099-0-0.195-0.040-0.265-0.11s-0.11-0.166-0.11-0.265zM22.225 21.3c-0.573 0.432-1.038 0.991-1.359 1.633s-0.489 1.35-0.491 2.067v0.378h-8.852c-0.093-0.137-0.198-0.265-0.315-0.382l-1.038-1.039c0.489-0.059 0.95-0.255 1.333-0.564s0.671-0.72 0.831-1.185c0.16-0.465 0.187-0.966 0.076-1.446s-0.354-0.918-0.702-1.266l-1.539-1.538c0.385-0.046 0.754-0.177 1.081-0.384 0.945 1.152 2.25 1.951 3.705 2.27s2.975 0.137 4.314-0.515c1.339-0.652 2.42-1.736 3.067-3.078s0.823-2.862 0.5-4.316c-0.323-1.454-1.128-2.756-2.283-3.697s-2.593-1.464-4.082-1.487-2.943 0.458-4.125 1.363c-1.183 0.905-2.026 2.183-2.393 3.626 0 0-1.239-1.228-1.328-1.297v-5.322h15.75v14.565l-2.15 1.613z"></path>
<path fill="#962689" style="fill: var(--color1, #962689)" d="M15.813 14h1.063c0.235 0.008 0.457 0.107 0.62 0.276s0.254 0.395 0.254 0.63c0 0.235-0.091 0.461-0.254 0.63s-0.386 0.268-0.62 0.276h-1.576c-0.218 0.005-0.375-0.207-0.343-0.415 0.003-0.166-0.060-0.326-0.175-0.445s-0.273-0.188-0.439-0.191-0.326 0.060-0.445 0.175c-0.119 0.115-0.188 0.273-0.191 0.439l-0.001 0.065c-0.004 0.212 0.035 0.422 0.113 0.619s0.195 0.376 0.344 0.527 0.325 0.271 0.521 0.353c0.195 0.082 0.405 0.124 0.617 0.124h0.451v0.375c0 0.166 0.066 0.325 0.183 0.442s0.276 0.183 0.442 0.183c0.166 0 0.325-0.066 0.442-0.183s0.183-0.276 0.183-0.442v-0.379c0.554-0.040 1.072-0.293 1.444-0.706s0.571-0.953 0.555-1.508c-0.016-0.556-0.246-1.084-0.642-1.474s-0.927-0.613-1.483-0.621h-1.063c-0.232 0-0.455-0.092-0.619-0.256s-0.256-0.387-0.256-0.619 0.092-0.455 0.256-0.619c0.164-0.164 0.387-0.256 0.619-0.256h1.551c0.22 0.018 0.335 0.138 0.344 0.359-0.003 0.082 0.009 0.164 0.037 0.241s0.071 0.148 0.127 0.208c0.112 0.122 0.268 0.195 0.434 0.202s0.327-0.052 0.449-0.164c0.122-0.112 0.195-0.268 0.202-0.434 0.009-0.215-0.025-0.43-0.101-0.631s-0.192-0.385-0.34-0.54c-0.149-0.155-0.328-0.279-0.525-0.363s-0.411-0.128-0.626-0.128h-0.363v-0.375c0-0.166-0.066-0.325-0.183-0.442s-0.276-0.183-0.442-0.183c-0.166 0-0.325 0.066-0.442 0.183s-0.183 0.276-0.183 0.442v0.377c-0.558 0.017-1.087 0.252-1.472 0.655s-0.597 0.942-0.589 1.5c0.008 0.558 0.236 1.090 0.633 1.482s0.933 0.611 1.491 0.611z"></path>
</symbol>
<symbol id="icon-payment-method" viewBox="0 0 32 32">
<path fill="#962689" style="fill: var(--color1, #962689)" d="M10.784 24.494c-0.008-0.040-0.020-0.079-0.036-0.117s-0.035-0.074-0.058-0.107c-0.022-0.034-0.049-0.066-0.077-0.095s-0.061-0.055-0.095-0.077c-0.034-0.023-0.070-0.042-0.108-0.058s-0.077-0.028-0.117-0.036c-0.081-0.016-0.164-0.016-0.244 0-0.040 0.007-0.079 0.020-0.117 0.036s-0.074 0.035-0.107 0.058c-0.034 0.023-0.066 0.049-0.095 0.077s-0.055 0.061-0.078 0.095c-0.023 0.034-0.042 0.070-0.057 0.107s-0.028 0.078-0.036 0.117c-0.008 0.040-0.012 0.081-0.012 0.122s0.004 0.082 0.012 0.122c0.008 0.040 0.020 0.079 0.036 0.117s0.034 0.074 0.057 0.108c0.023 0.034 0.049 0.066 0.078 0.095s0.061 0.055 0.095 0.078c0.034 0.023 0.070 0.042 0.107 0.058s0.078 0.028 0.117 0.036c0.040 0.008 0.081 0.012 0.122 0.012s0.082-0.004 0.122-0.012c0.040-0.007 0.079-0.020 0.117-0.036s0.074-0.035 0.108-0.058c0.034-0.023 0.066-0.049 0.095-0.078s0.055-0.061 0.077-0.095c0.023-0.034 0.042-0.070 0.058-0.108s0.027-0.077 0.036-0.117c0.008-0.040 0.012-0.081 0.012-0.122s-0.004-0.082-0.012-0.122z"></path>
<path fill="#000" style="fill: var(--color3, #000)" d="M28.75 24.686c-0.002-0.006-0.005-0.012-0.008-0.018-0.575-1.346-1.924-1.844-3.521-1.298l-4.354 1.204c-0.252-0.762-0.88-1.411-1.768-1.741-0.005-0.002-0.011-0.004-0.017-0.006l-4.786-1.625c-0.398-0.515-1.646-1.833-3.983-1.833-1.633 0-3.077 1.12-3.904 2.341h-5.785c-0.345 0-0.625 0.28-0.625 0.625v7.88c0 0.345 0.28 0.625 0.625 0.625h3.716c0.345 0 0.625-0.28 0.625-0.625v-0.54h1.743c0.345 0 0.625-0.28 0.625-0.625v-0.18c1.016 0.089 1.35 0.281 2.283 0.819 0.717 0.414 1.802 1.039 3.755 1.917 0.009 0.004 0.018 0.008 0.027 0.012 0.375 0.147 1.107 0.379 2.011 0.379 0.629 0 1.34-0.112 2.071-0.443l9.624-3.446c0.017-0.006 0.034-0.013 0.050-0.021 0.92-0.423 2.291-1.616 1.594-3.402zM3.716 29.591h-2.466v-6.63h2.466v6.63zM6.084 28.426h-1.118v-5.465h1.118v5.465zM26.656 26.942l-9.62 3.444c-0.008 0.003-0.020 0.008-0.028 0.011s-0.017 0.007-0.025 0.011c-1.34 0.616-2.613 0.247-3.112 0.053-1.886-0.849-2.893-1.429-3.629-1.854-1.023-0.59-1.516-0.874-2.907-0.989v-5.034c0.592-0.971 1.741-1.965 2.98-1.965 2.124 0 3.024 1.382 3.060 1.437 0.076 0.124 0.194 0.218 0.332 0.264l4.967 1.686c0.793 0.298 1.213 0.977 1.020 1.655-0.089 0.313-0.294 0.572-0.579 0.731-0.282 0.157-0.607 0.196-0.918 0.11l-5.6-1.774c-0.329-0.104-0.68 0.078-0.785 0.407s0.078 0.68 0.407 0.785l5.609 1.778c0.006 0.002 0.012 0.004 0.018 0.005 0.224 0.064 0.452 0.095 0.679 0.095 0.415 0 0.825-0.106 1.198-0.313 0.576-0.321 0.992-0.847 1.172-1.481 0.014-0.051 0.027-0.101 0.038-0.152l4.693-1.3c0.678-0.231 1.567-0.315 1.964 0.597 0.41 1.071-0.656 1.66-0.933 1.792z"></path>
<path fill="#962689" style="fill: var(--color1, #962689)" d="M22.441 8.221c-0.008-0.040-0.020-0.079-0.036-0.117s-0.034-0.074-0.058-0.107c-0.023-0.034-0.049-0.066-0.077-0.095s-0.061-0.055-0.095-0.077c-0.034-0.022-0.070-0.042-0.107-0.058s-0.078-0.028-0.117-0.036c-0.081-0.016-0.164-0.016-0.244 0-0.040 0.008-0.079 0.020-0.117 0.036s-0.074 0.035-0.108 0.058c-0.034 0.022-0.066 0.049-0.095 0.077s-0.055 0.061-0.077 0.095c-0.023 0.034-0.042 0.070-0.058 0.107s-0.028 0.078-0.036 0.117c-0.008 0.040-0.012 0.081-0.012 0.122s0.004 0.082 0.012 0.122c0.008 0.040 0.020 0.079 0.036 0.117s0.035 0.074 0.058 0.108c0.022 0.034 0.049 0.066 0.077 0.095s0.061 0.055 0.095 0.078c0.034 0.023 0.070 0.042 0.108 0.057s0.077 0.027 0.117 0.036c0.040 0.008 0.081 0.012 0.122 0.012s0.082-0.004 0.123-0.012c0.039-0.008 0.079-0.020 0.117-0.036s0.074-0.035 0.107-0.057c0.034-0.023 0.066-0.049 0.095-0.078s0.055-0.061 0.077-0.095c0.023-0.034 0.042-0.070 0.058-0.108s0.028-0.077 0.036-0.117c0.008-0.040 0.012-0.081 0.012-0.122s-0.004-0.082-0.012-0.122z"></path>
<path fill="#000" style="fill: var(--color3, #000)" d="M31.375 2.118h-3.716c-0.345 0-0.625 0.28-0.625 0.625v0.54h-1.743c-0.345 0-0.625 0.28-0.625 0.625v0.18c-1.016-0.089-1.35-0.281-2.283-0.819-0.718-0.414-1.802-1.039-3.755-1.917-0.009-0.004-0.018-0.008-0.027-0.012-0.636-0.25-2.302-0.742-4.081 0.064l-2.515 0.9-2.12-2.12c-0.244-0.244-0.64-0.244-0.884 0l-6.96 6.96c-0.225 0.225-0.268 0.616 0 0.884l11.893 11.893c0.19 0.19 0.636 0.248 0.884 0l6.354-6.354c0.165 0.014 0.337 0.022 0.514 0.022 1.633 0 3.077-1.12 3.903-2.341h5.785c0.345 0 0.625-0.28 0.625-0.625v-7.88c0-0.345-0.28-0.625-0.625-0.625zM9.443 1.51l1.425 1.424c-0.423 0.262-0.913 0.402-1.425 0.402s-1.001-0.14-1.425-0.402l1.425-1.425zM4.791 9.011l-1.425-1.425 1.425-1.425c0.262 0.423 0.402 0.913 0.402 1.425s-0.14 1.001-0.402 1.425zM14.376 18.595l-1.424-1.424c0.869-0.537 1.979-0.537 2.848 0l-1.424 1.424zM16.701 16.271c-1.381-1.002-3.268-1.002-4.649 0l-6.359-6.36c0.488-0.671 0.752-1.478 0.752-2.325s-0.263-1.654-0.752-2.325l1.426-1.426c0.671 0.488 1.477 0.752 2.325 0.752s1.654-0.263 2.325-0.752l1.352 1.352c-0.292 0.043-0.576 0.139-0.841 0.287-0.448 0.25-0.799 0.623-1.018 1.076-0.705 0.131-1.358 0.472-1.87 0.984-1.389 1.389-1.389 3.649 0 5.038 0.694 0.694 1.607 1.042 2.519 1.042s1.825-0.347 2.519-1.042c0.452-0.452 0.769-1.007 0.927-1.613l2.11 0.716c-0.238 1.101 0.006 2.258 0.662 3.168l-1.427 1.427zM12.901 10.126c0.005 0.002 0.011 0.004 0.017 0.006l1.25 0.424c-0.094 0.426-0.308 0.818-0.622 1.132-0.902 0.902-2.369 0.902-3.271 0s-0.902-2.369 0-3.271c0.218-0.218 0.474-0.388 0.754-0.503 0.115 0.96 0.807 1.816 1.873 2.212zM19.029 13.943c-0.241-0.393-0.378-0.842-0.399-1.3 0.299 0.216 0.665 0.428 1.102 0.597l-0.703 0.703zM24.666 10.374c-0.592 0.971-1.741 1.965-2.98 1.965-0.232 0-0.449-0.017-0.652-0.046-0.001-0-0.002-0-0.002-0-1.35-0.196-2.076-0.963-2.315-1.267-0.013-0.019-0.067-0.090-0.075-0.102-0.073-0.13-0.192-0.235-0.344-0.286l-4.969-1.687c-0.793-0.298-1.212-0.977-1.020-1.654 0-0 0-0.001 0-0.001s0-0.001 0-0.002c0.089-0.312 0.294-0.571 0.578-0.729 0.282-0.157 0.607-0.196 0.918-0.11l5.6 1.774c0.329 0.104 0.68-0.078 0.785-0.407s-0.078-0.68-0.407-0.785l-4.453-1.411-0.039-0.039c-0-0-0.001-0.001-0.001-0.001l-2.306-2.306 1.982-0.71c0.007-0.002 0.015-0.006 0.022-0.008 0.002-0.001 0.005-0.002 0.007-0.003 0.008-0.003 0.017-0.007 0.025-0.011 1.34-0.616 2.613-0.247 3.112-0.053 1.886 0.849 2.893 1.429 3.629 1.854 1.023 0.59 1.516 0.874 2.907 0.989v5.034zM27.034 9.998h-1.118v-5.465h1.118v5.465zM30.75 9.998h-2.466v-6.63h2.466v6.63z"></path>
</symbol>
<symbol id="icon-debit-card" viewBox="0 0 32 32">
<path fill="#000" style="fill: var(--color3, #000)" d="M26.667 5.65v-2.983c-0.002-1.472-1.195-2.665-2.667-2.667h-21.333c-1.472 0.002-2.665 1.195-2.667 2.667v11.733c0.004 1.362 1.037 2.501 2.391 2.639l2.005 5.204c0.53 1.374 2.073 2.059 3.447 1.53l12.519-4.823c-0.865 2.26-0.619 4.794 0.664 6.845l0.306 0.49v5.181c0 0.295 0.239 0.533 0.533 0.533h9.6c0.295 0 0.533-0.239 0.533-0.533v-17.605c-0.005-1.844-0.739-3.612-2.043-4.916l-3.29-3.296zM26.667 8.84l1.619 4.202c0.317 0.825-0.094 1.75-0.919 2.068l-0.925 0.357c0.148-0.336 0.224-0.7 0.225-1.067v-5.56zM1.067 14.4v-11.733c0-0.883 0.717-1.6 1.6-1.6h21.333c0.884 0 1.6 0.717 1.6 1.6v3.39h-0.005l0.005 0.012v8.331c-0.004 0.093-0.016 0.185-0.036 0.276l-4.885-4.886c-1.098-1.073-2.849-1.081-3.957-0.019s-1.175 2.812-0.15 3.954l2.083 2.275h-15.988c-0.883 0-1.6-0.716-1.6-1.6zM7.899 17.067l-3.793 1.46-0.561-1.46h4.354zM7.46 22.777c-0.825 0.318-1.751-0.093-2.068-0.918l-0.9-2.34 6.366-2.457h8.774l0.693 0.756-12.865 4.958zM30.933 30.933h-8.533v-4.267h8.533v4.267zM30.933 25.6h-8.771l-0.231-0.37c-1.3-2.078-1.352-4.703-0.135-6.83 0.115-0.201 0.087-0.454-0.070-0.625l-4.371-4.768c-0.652-0.713-0.615-1.816 0.083-2.484s1.801-0.657 2.486 0.024l8.499 8.497 0.754-0.754-1.973-1.973 0.547-0.213c1.373-0.53 2.057-2.072 1.529-3.445l-1.805-4.687 1.728 1.731c1.104 1.104 1.726 2.599 1.731 4.161v11.738z"></path>
<path fill="#962689" style="fill: var(--color1, #962689)" d="M6.080 7.467c0.766 0 1.387-0.621 1.387-1.387v-2.56c0-0.766-0.621-1.387-1.387-1.387h-2.56c-0.766 0-1.387 0.621-1.387 1.387v2.56c0 0.766 0.621 1.387 1.387 1.387h2.56zM3.2 6.080v-0.747h1.067v-1.067h-1.067v-0.747c0-0.177 0.143-0.32 0.32-0.32h2.56c0.177 0 0.32 0.143 0.32 0.32v0.747h-1.067v1.067h1.067v0.747c0 0.177-0.143 0.32-0.32 0.32h-2.56c-0.177 0-0.32-0.143-0.32-0.32z"></path>
<path fill="#962689" style="fill: var(--color1, #962689)" d="M2.667 9.066h2.133v1.067h-2.133v-1.067z"></path>
<path fill="#962689" style="fill: var(--color1, #962689)" d="M2.667 12.267h2.133v1.067h-2.133v-1.067z"></path>
<path fill="#962689" style="fill: var(--color1, #962689)" d="M12.267 12.267h2.133v1.067h-2.133v-1.067z"></path>
<path fill="#962689" style="fill: var(--color1, #962689)" d="M5.867 9.066h2.133v1.067h-2.133v-1.067z"></path>
<path fill="#962689" style="fill: var(--color1, #962689)" d="M9.067 9.066h2.133v1.067h-2.133v-1.067z"></path>
<path fill="#962689" style="fill: var(--color1, #962689)" d="M12.267 9.066h2.133v1.067h-2.133v-1.067z"></path>
<path fill="#000" style="fill: var(--color3, #000)" d="M22.4 2.667h1.067v1.6h-1.067v-1.6z"></path>
<path fill="#000" style="fill: var(--color3, #000)" d="M20.267 2.667h1.067v1.6h-1.067v-1.6z"></path>
<path fill="#000" style="fill: var(--color3, #000)" d="M18.133 2.667h1.067v1.6h-1.067v-1.6z"></path>
<path fill="#000" style="fill: var(--color3, #000)" d="M16 2.667h1.067v1.6h-1.067v-1.6z"></path>
<path fill="#962689" style="fill: var(--color1, #962689)" d="M23.467 27.733h1.067v1.067h-1.067v-1.067z"></path>
</symbol>
<symbol id="icon-gpay" viewBox="0 0 80 32">
<path fill="#5f6368" style="fill: var(--color4, #5f6368)" d="M37.839 4.702v8.088h4.944c1.176 0 2.153-0.4 2.922-1.195 0.793-0.795 1.185-1.746 1.185-2.849 0-1.078-0.397-2.015-1.185-2.815-0.769-0.819-1.746-1.229-2.922-1.229h-4.944zM37.839 15.633v9.38h-2.956v-23.161h7.837c1.993 0 3.676 0.668 5.070 2.005 1.417 1.337 2.124 2.966 2.124 4.883 0 1.961-0.706 3.6-2.124 4.917-1.369 1.317-3.062 1.971-5.070 1.971l-4.881 0.005z"></path>
<path fill="#5f6368" style="fill: var(--color4, #5f6368)" d="M52.898 20.16c0 0.776 0.324 1.424 0.982 1.941 0.653 0.517 1.417 0.776 2.298 0.776 1.243 0 2.346-0.463 3.324-1.39 0.972-0.927 1.461-2.015 1.461-3.263-0.919-0.737-2.206-1.102-3.856-1.102-1.2 0-2.201 0.293-3.004 0.873-0.803 0.585-1.204 1.302-1.204 2.166zM56.72 8.648c2.187 0 3.909 0.585 5.172 1.761s1.892 2.785 1.892 4.834v9.771h-2.825v-2.2h-0.131c-1.219 1.81-2.844 2.717-4.881 2.717-1.732 0-3.188-0.517-4.354-1.551-1.166-1.039-1.751-2.327-1.751-3.883 0-1.639 0.614-2.941 1.843-3.912 1.233-0.971 2.873-1.459 4.929-1.459 1.756 0 3.203 0.322 4.335 0.971v-0.678c0-1.034-0.406-1.912-1.219-2.634-0.818-0.722-1.766-1.083-2.859-1.083-1.65 0-2.956 0.702-3.919 2.102l-2.593-1.654c1.437-2.068 3.556-3.102 6.361-3.102z"></path>
<path fill="#5f6368" style="fill: var(--color4, #5f6368)" d="M80.001 9.165l-9.864 22.834h-3.048l3.662-7.99-6.487-14.844h3.212l4.688 11.385h0.063l4.562-11.385h3.212z"></path>
<path fill="#962689" style="fill: var(--color1, #962689)" d="M25.897 13.611c0-0.937-0.077-1.839-0.227-2.707h-12.457v5.127h7.135c-0.305 1.673-1.234 3.093-2.636 4.044v3.327h4.257c2.491-2.317 3.928-5.741 3.928-9.79z"></path>
<path fill="#962689" style="fill: var(--color1, #962689)" d="M13.212 26.616c3.565 0 6.569-1.18 8.756-3.215l-4.257-3.327c-1.185 0.805-2.714 1.273-4.499 1.273-3.444 0-6.371-2.341-7.416-5.493h-4.388v3.429c2.172 4.346 6.642 7.332 11.804 7.332z"></path>
<path fill="#962689" style="fill: var(--color1, #962689)" d="M5.796 15.855c-0.266-0.805-0.416-1.663-0.416-2.546s0.145-1.741 0.416-2.546v-3.429h-4.388c-0.9 1.795-1.408 3.824-1.408 5.976s0.508 4.181 1.408 5.976l4.388-3.429z"></path>
<path fill="#962689" style="fill: var(--color1, #962689)" d="M13.212 5.269c1.945 0 3.691 0.673 5.070 1.995l3.768-3.8c-2.288-2.146-5.278-3.468-8.838-3.468-5.162 0-9.632 2.985-11.804 7.332l4.388 3.429c1.045-3.151 3.972-5.488 7.416-5.488z"></path>
</symbol>
<symbol id="icon-v-kontakt" viewBox="0 0 32 32">
<path fill="#4c75a3" style="fill: var(--color4, #4c75a3)" d="M20.391 29.613h-9.805c-4.512 0-8.17-3.662-8.17-8.18v-9.816c0-4.518 3.658-8.18 8.17-8.18h9.804c4.512 0 8.17 3.663 8.17 8.18v9.816c0.001 4.518-3.657 8.18-8.169 8.18z"></path>
<path fill="#4c75a3" style="fill: var(--color4, #4c75a3)" opacity="0.6" d="M20.391 29.613h-9.805c-4.512 0-8.17-3.662-8.17-8.18v-9.816c0-4.518 3.658-8.18 8.17-8.18h9.804c4.512 0 8.17 3.663 8.17 8.18v9.816c0.001 4.518-3.657 8.18-8.169 8.18z"></path>
<path fill="#fff" style="fill: var(--color2, #fff)" d="M22.579 21.106l-2.091 0.029c0 0-0.45 0.089-1.040-0.317-0.782-0.538-1.52-1.935-2.094-1.752-0.583 0.186-0.565 1.443-0.565 1.443s0.004 0.268-0.129 0.412c-0.144 0.156-0.427 0.187-0.427 0.187h-0.936c0 0-2.064 0.124-3.883-1.772-1.983-2.068-3.735-6.17-3.735-6.17s-0.101-0.269 0.009-0.399c0.123-0.146 0.459-0.156 0.459-0.156l2.237-0.014c0 0 0.21 0.035 0.361 0.146 0.124 0.091 0.194 0.263 0.194 0.263s0.361 0.916 0.841 1.744c0.935 1.617 1.37 1.971 1.687 1.798 0.462-0.253 0.324-2.285 0.324-2.285s0.009-0.738-0.232-1.067c-0.186-0.255-0.539-0.329-0.695-0.35-0.126-0.017 0.081-0.31 0.349-0.441 0.402-0.197 1.113-0.209 1.953-0.2 0.654 0.007 0.843 0.048 1.099 0.11 0.771 0.187 0.509 0.907 0.509 2.633 0 0.553-0.1 1.331 0.299 1.589 0.171 0.111 0.591 0.016 1.639-1.766 0.497-0.844 0.869-1.838 0.869-1.838s0.082-0.177 0.207-0.253c0.13-0.078 0.304-0.054 0.304-0.054l2.354-0.014c0 0 0.707-0.085 0.822 0.236 0.12 0.336-0.264 1.119-1.226 2.403-1.579 2.107-1.755 1.91-0.444 3.129 1.253 1.164 1.512 1.73 1.554 1.8 0.52 0.861-0.573 0.929-0.573 0.929z"></path>
</symbol>
<symbol id="icon-instagram" viewBox="0 0 32 32">
<path fill="#FFDD55" style="fill: var(--color1, #000)" d="M3.172 2.599c-2.396 2.491-1.905 5.138-1.905 13.178 0 6.677-1.163 13.37 4.926 14.946 1.901 0.49 18.749 0.49 20.648-0.003 2.535-0.655 4.598-2.714 4.88-6.304 0.039-0.501 0.039-16.768-0.001-17.279-0.3-3.824-2.651-6.028-5.749-6.474-0.71-0.103-0.852-0.134-4.495-0.14-12.921 0.006-15.754-0.57-18.303 2.077z"></path>
<path fill="#FFDD55" style="fill: var(--color2, #fff)" d="M16.505 4.514c-4.612 0-8.991-0.411-10.664 3.888-0.691 1.775-0.591 4.081-0.591 7.382 0 2.897-0.093 5.62 0.591 7.381 1.669 4.301 6.084 3.889 10.662 3.889 4.416 0 8.97 0.46 10.663-3.889 0.692-1.793 0.591-4.064 0.591-7.381 0-4.403 0.242-7.245-1.89-9.379-2.159-2.162-5.079-1.891-9.366-1.891h0.005zM15.497 6.545c9.62-0.015 10.845-1.086 10.169 13.789-0.24 5.261-4.241 4.684-9.159 4.684-8.967 0-9.225-0.257-9.225-9.239 0-9.087 0.711-9.229 8.215-9.237v0.003zM22.513 8.415c-0.746 0-1.35 0.605-1.35 1.352s0.605 1.352 1.35 1.352c0.746 0 1.35-0.605 1.35-1.352s-0.605-1.352-1.35-1.352zM16.505 9.996c-3.192 0-5.779 2.592-5.779 5.788s2.587 5.786 5.779 5.786c3.192 0 5.778-2.591 5.778-5.786s-2.586-5.788-5.778-5.788zM16.505 12.027c4.96 0 4.966 7.513 0 7.513-4.959 0-4.966-7.513 0-7.513z"></path>
</symbol>
<symbol id="icon-facebook" viewBox="0 0 33 32">
<path fill="#2968cc" style="fill: var(--color3, #2968cc)" d="M20.711 30.096h-10.046c-4.623 0-8.371-3.753-8.371-8.382v-10.058c0-4.629 3.748-8.382 8.371-8.382h10.046c4.623 0 8.371 3.753 8.371 8.382v10.058c0 4.629-3.748 8.382-8.371 8.382z"></path>
<path fill="#2968cc" style="fill: var(--color3, #2968cc)" opacity="0.6" d="M20.711 30.096h-10.046c-4.623 0-8.371-3.753-8.371-8.382v-10.058c0-4.629 3.748-8.382 8.371-8.382h10.046c4.623 0 8.371 3.753 8.371 8.382v10.058c0 4.629-3.748 8.382-8.371 8.382z"></path>
<path fill="#fff" style="fill: var(--color2, #fff)" d="M17.781 14.284v2.516h3.715l-0.594 3.878h-3.121v9.419h-4.185v-9.419h-3.402v-3.878h3.402v-2.956c0-3.363 2-5.218 5.059-5.218 1.466 0 2.999 0.262 2.999 0.262v3.301h-1.69c-1.665 0-2.183 1.035-2.183 2.095z"></path>
</symbol>
</defs>
</svg>