<svg width="16" height="16" viewBox="0 0 16 16" fill="none" xmlns="http://www.w3.org/2000/svg">
<path d="M8 1.44209C10.1357 1.44209 10.3892 1.45065 11.2336 1.48833C12.0128 1.5243 12.4376 1.65446 12.7185 1.76408C13.0918 1.90966 13.3573 2.08264 13.6382 2.36181C13.9191 2.64098 14.0921 2.90816 14.2376 3.28152C14.3472 3.56241 14.4774 3.98715 14.5134 4.76643C14.5528 5.61079 14.5596 5.86256 14.5596 8C14.5596 10.1357 14.5511 10.3892 14.5134 11.2319C14.4774 12.0111 14.3472 12.4359 14.2376 12.7168C14.0921 13.0901 13.9191 13.3573 13.6382 13.6365C13.3573 13.9174 13.0918 14.0903 12.7185 14.2342C12.4359 14.3438 12.0128 14.474 11.2336 14.51C10.3892 14.5511 10.1357 14.5579 8 14.5579C5.86427 14.5579 5.61079 14.5493 4.76814 14.5117C3.98887 14.4757 3.56412 14.3455 3.28324 14.2359C2.90987 14.0903 2.64269 13.9174 2.36352 13.6382C2.08435 13.359 1.90966 13.0918 1.76408 12.7185C1.65446 12.4359 1.5243 12.0128 1.48833 11.2336C1.44894 10.3909 1.44209 10.1374 1.44209 8.00171C1.44209 5.86598 1.45065 5.6125 1.48833 4.76814C1.5243 3.98887 1.65446 3.56412 1.76408 3.28324C1.90966 2.90987 2.08264 2.64269 2.36352 2.36352C2.6444 2.08264 2.90987 1.90966 3.28324 1.76579C3.56583 1.65618 3.98887 1.52601 4.76814 1.49004C5.61079 1.45065 5.86427 1.44209 8 1.44209ZM8 0C5.8283 0 5.55598 0.00856348 4.70135 0.0479555C3.85014 0.0873475 3.26782 0.22265 2.75915 0.41961C2.23335 0.623421 1.78634 0.897452 1.34275 1.34275C0.897452 1.78805 0.625134 2.23335 0.41961 2.75915C0.220938 3.26782 0.0856348 3.85014 0.0479555 4.70135C0.0102762 5.55427 0 5.8283 0 8C0 10.1717 0.0102762 10.4457 0.0479555 11.2987C0.0873475 12.1499 0.22265 12.7322 0.41961 13.2408C0.623421 13.7666 0.897452 14.2137 1.34275 14.6572C1.78634 15.1025 2.23335 15.3749 2.75915 15.5804C3.26782 15.7773 3.85014 15.9127 4.70135 15.952C5.55427 15.9914 5.82659 16 8 16C10.1734 16 10.4457 15.9914 11.2987 15.952C12.1499 15.9127 12.7305 15.7773 13.2408 15.5804C13.7666 15.3766 14.2137 15.1025 14.6572 14.6572C15.1025 14.2119 15.3749 13.7666 15.5804 13.2408C15.7791 12.7322 15.9144 12.1499 15.952 11.2987C15.9914 10.4457 16 10.1734 16 8C16 5.82659 15.9897 5.55427 15.952 4.70135C15.9127 3.85014 15.7791 3.26782 15.5804 2.75915C15.3766 2.23335 15.1025 1.78634 14.6572 1.34275C14.2119 0.897452 13.7666 0.625134 13.2408 0.41961C12.7322 0.220938 12.1499 0.0856348 11.2987 0.0479555C10.4457 0.00856348 10.1734 0 8 0ZM8 3.89124C5.73068 3.89124 3.89124 5.73068 3.89124 8C3.89124 10.2693 5.73068 12.1088 8 12.1088C10.2693 12.1088 12.1088 10.2693 12.1088 8C12.1088 5.73068 10.2693 3.89124 8 3.89124ZM8 10.6667C6.52708 10.6667 5.33333 9.47292 5.33333 8C5.33333 6.52708 6.52708 5.33333 8 5.33333C9.47292 5.33333 10.6667 6.52708 10.6667 8C10.6667 9.47292 9.47292 10.6667 8 10.6667ZM13.2306 3.73025C13.2306 3.20103 12.8007 2.76943 12.2715 2.76943C11.7405 2.76943 11.3106 3.19932 11.3106 3.73025C11.3106 4.26119 11.7405 4.68936 12.2715 4.68936C12.8007 4.68936 13.2306 4.25947 13.2306 3.73025Z" fill="#103742"/>
</svg>
