<svg width="60" height="60" viewBox="0 0 60 60" fill="none" xmlns="http://www.w3.org/2000/svg">
<path d="M55.7998 27.1133L54.246 20.8982C54.6708 20.808 54.9895 20.4311 54.9895 19.9796V18.9775C54.9895 16.8018 53.2194 15.0318 51.0438 15.0318H43.9666V12.9649C43.9666 11.8943 43.0957 11.0233 42.0251 11.0233H5.94984C4.87922 11.0233 4.00828 11.8943 4.00828 12.9649V30.0004C4.00828 30.5192 4.42887 30.9399 4.94777 30.9399C5.46656 30.9399 5.88727 30.5193 5.88727 30.0004V12.9649C5.88727 12.9303 5.91527 12.9023 5.94984 12.9023H42.025C42.0595 12.9023 42.0875 12.9303 42.0875 12.9649V30.0007C42.0875 30.5195 42.5081 30.9402 43.027 30.9402C43.5458 30.9402 43.9665 30.5196 43.9665 30.0007V28.9357H55.0488C55.0498 28.9357 55.0505 28.9359 55.0513 28.9359C55.0522 28.9359 55.053 28.9358 55.0539 28.9358C56.4176 28.9367 57.5755 29.8318 57.9732 31.0652H55.052C54.5332 31.0652 54.1125 31.4858 54.1125 32.0047V34.0088C54.1125 35.632 55.433 36.9525 57.0561 36.9525H58.1209V41.086H55.6644C54.8575 38.756 52.6425 37.0776 50.0415 37.0776C47.4405 37.0776 45.2255 38.756 44.4186 41.086H43.9663V34.0087C43.9663 33.4899 43.5457 33.0692 43.0268 33.0692C42.508 33.0692 42.0873 33.4898 42.0873 34.0087V41.0858H22.5957C21.7888 38.7557 19.5738 37.0774 16.9729 37.0774C14.3719 37.0774 12.1568 38.7557 11.35 41.0858H5.94984C5.91527 41.0858 5.88727 41.0578 5.88727 41.0232V38.9564H9.95824C10.477 38.9564 10.8977 38.5358 10.8977 38.0169C10.8977 37.498 10.4771 37.0774 9.95824 37.0774H0.939492C0.420703 37.0774 0 37.498 0 38.0169C0 38.5358 0.420586 38.9564 0.939492 38.9564H4.0084V41.0232C4.0084 42.0938 4.87934 42.9648 5.94996 42.9648H11.0246C11.0244 42.9856 11.023 43.0064 11.023 43.0273C11.023 46.3081 13.6922 48.9772 16.9729 48.9772C20.2535 48.9772 22.9227 46.3081 22.9227 43.0273C22.9227 43.0062 22.9213 42.9856 22.9211 42.9648H44.0933C44.0931 42.9856 44.0917 43.0064 44.0917 43.0273C44.0917 46.3081 46.7609 48.9772 50.0415 48.9772C53.3222 48.9772 55.9914 46.3081 55.9914 43.0273C55.9914 43.0062 55.99 42.9856 55.9897 42.9648H59.0604C59.5792 42.9648 59.9999 42.5442 59.9999 42.0253V32.0044C60 29.5304 58.1746 27.4748 55.7998 27.1133ZM43.9666 16.9107H51.0438C52.1835 16.9107 53.1107 17.8379 53.1107 18.9775V19.0401H43.9666V16.9107ZM43.9666 27.0568V20.919H52.3145L53.8489 27.0568H43.9666ZM16.9729 47.0985C14.7281 47.0985 12.9019 45.2724 12.9019 43.0276C12.9019 40.7827 14.7281 38.9566 16.9729 38.9566C19.2176 38.9566 21.0438 40.7827 21.0438 43.0276C21.0438 45.2724 19.2176 47.0985 16.9729 47.0985ZM50.0418 47.0985C47.797 47.0985 45.9708 45.2724 45.9708 43.0276C45.9708 40.7827 47.797 38.9566 50.0418 38.9566C52.2865 38.9566 54.1127 40.7827 54.1127 43.0276C54.1127 45.2724 52.2865 47.0985 50.0418 47.0985ZM58.1211 35.0735H57.0564C56.4693 35.0735 55.9916 34.5958 55.9916 34.0087V32.9439H58.121V35.0735H58.1211Z" fill="#103742"/>
<path d="M16.9728 41.0858C15.9022 41.0858 15.0312 41.9568 15.0312 43.0274C15.0312 44.098 15.9022 44.969 16.9728 44.969C18.0434 44.969 18.9144 44.098 18.9144 43.0274C18.9144 41.9568 18.0434 41.0858 16.9728 41.0858Z" fill="#962689"/>
<path d="M50.0417 41.0858C48.971 41.0858 48.1001 41.9568 48.1001 43.0274C48.1001 44.098 48.971 44.969 50.0417 44.969C51.1123 44.969 51.9832 44.098 51.9832 43.0274C51.9832 41.9568 51.1123 41.0858 50.0417 41.0858Z" fill="#962689"/>
<path d="M39.0187 37.0777H24.9895C24.4708 37.0777 24.05 37.4983 24.05 38.0172C24.05 38.5361 24.4706 38.9567 24.9895 38.9567H39.0187C39.5375 38.9567 39.9582 38.5361 39.9582 38.0172C39.9582 37.4983 39.5377 37.0777 39.0187 37.0777Z" fill="#962689"/>
<path d="M14.9687 33.0693H2.94364C2.42485 33.0693 2.00415 33.4899 2.00415 34.0088C2.00415 34.5277 2.42474 34.9483 2.94364 34.9483H14.9687C15.4875 34.9483 15.9082 34.5277 15.9082 34.0088C15.9082 33.4899 15.4875 33.0693 14.9687 33.0693Z" fill="#962689"/>
</svg>
