<svg width="22" height="20" viewBox="0 0 22 20" fill="none" xmlns="http://www.w3.org/2000/svg">
<path d="M21.5417 8.16652H17.6578L12.7528 1.03191C12.6096 0.823336 12.3244 0.770957 12.1154 0.913743C11.9069 1.05743 11.854 1.34253 11.9973 1.5511L16.5453 8.16648H5.45467L10.0028 1.55114C10.146 1.34257 10.0932 1.05743 9.88462 0.913786C9.67695 0.771 9.39138 0.823379 9.24726 1.03195L4.34221 8.16652H0.458348C0.205004 8.16652 0 8.37153 0 8.62487C0 8.87821 0.205004 9.08322 0.458348 9.08322H1.03984L3.84171 17.8891C4.08521 18.6532 4.78702 19.1666 5.58864 19.1666H16.4114C17.213 19.1666 17.9149 18.6532 18.1583 17.8887L20.9602 9.08322H21.5417C21.795 9.08322 22 8.87821 22 8.62487C22 8.37153 21.795 8.16652 21.5417 8.16652ZM17.2846 17.6107C17.1629 17.993 16.812 18.2499 16.4114 18.2499H5.58864C5.18805 18.2499 4.83712 17.993 4.71539 17.6111L2.00187 9.08318H19.9982L17.2846 17.6107Z" fill="#103742"/>
</svg>
