<svg width="24" height="24" viewBox="0 0 24 24" fill="none" xmlns="http://www.w3.org/2000/svg">
<path d="M19 0H5C2.23858 0 0 2.23858 0 5V19C0 21.7614 2.23858 24 5 24H19C21.7614 24 24 21.7614 24 19V5C24 2.23858 21.7614 0 19 0Z" fill="#61A8DE"/>
<path d="M18.8976 5.29782L2.84847 11.552C2.32864 11.7546 2.36013 12.5005 2.89524 12.6585L6.97348 13.8628L8.49549 18.6923C8.65448 19.1968 9.29375 19.3497 9.66381 18.9718L11.7724 16.8189L15.9095 19.8557C16.4158 20.2273 17.1369 19.9512 17.2655 19.3365L20.0055 6.23611C20.1397 5.59442 19.5084 5.05979 18.8976 5.29782ZM16.8854 8.20512L9.43072 14.7973C9.35642 14.863 9.30913 14.954 9.29807 15.0526L9.01105 17.604C9.00168 17.6872 8.88524 17.6982 8.86039 17.6182L7.67953 13.8132C7.62545 13.639 7.69596 13.4503 7.85095 13.3542L16.6542 7.8943C16.8566 7.76865 17.0639 8.04734 16.8854 8.20512Z" fill="white"/>
</svg>
